<?xml version="1.0" encoding="utf-8"?>
<!-- Generator: Adobe Illustrator 23.0.2, SVG Export Plug-In . SVG Version: 6.00 Build 0)  -->
<svg version="1.1" id="Layer_1" xmlns="http://www.w3.org/2000/svg" xmlns:xlink="http://www.w3.org/1999/xlink" x="0px" y="0px"
	 viewBox="0 0 24 24" style="enable-background:new 0 0 24 24;" xml:space="preserve">
<style type="text/css">
	.st0{fill:none;}
	.st1{fill:#41D0B3;}
</style>
<g id="Bounding_Box">
	<rect y="0" class="st0" width="24" height="24"/>
</g>
<g id="Flat">
	<g id="ui_x5F_spec_x5F_header_copy_2">
	</g>
	<g>
		<path class="st1" d="M17,19.2H5V7h7V5H5C3.9,5,3,5.9,3,7v12c0,1.1,0.9,2,2,2h12c1.1,0,2-0.9,2-2v-7h-2V19.2z"/>
		<path class="st1" d="M19,2h-2v3h-3c0,0,0,2,0,2h3v3c0,0,2,0,2,0V7h3V5h-3V2z"/>
		<rect x="7" y="9" class="st1" width="8" height="2"/>
		<polygon class="st1" points="7,12 7,14 15,14 15,12 12,12 		"/>
		<rect x="7" y="15" class="st1" width="8" height="2"/>
	</g>
</g>
</svg>
