<?xml version="1.0" encoding="UTF-8"?>
<svg xmlns="http://www.w3.org/2000/svg" xmlns:xlink="http://www.w3.org/1999/xlink" width="11pt" height="11pt" viewBox="0 0 11 11" version="1.1">
<g id="surface1">
<path style=" stroke:none;fill-rule:nonzero;fill:rgb(47.058824%,88.235294%,100%);fill-opacity:1;" d="M 7.792969 8.800781 L 2.292969 8.800781 L 2.292969 3.207031 L 5.5 3.207031 L 5.5 2.292969 L 2.292969 2.292969 C 1.785156 2.292969 1.375 2.703125 1.375 3.207031 L 1.375 8.707031 C 1.375 9.214844 1.785156 9.625 2.292969 9.625 L 7.792969 9.625 C 8.296875 9.625 8.707031 9.214844 8.707031 8.707031 L 8.707031 5.5 L 7.792969 5.5 Z M 7.792969 8.800781 "/>
<path style=" stroke:none;fill-rule:nonzero;fill:rgb(47.058824%,88.235294%,100%);fill-opacity:1;" d="M 8.707031 0.917969 L 7.792969 0.917969 L 7.792969 2.292969 L 6.417969 2.292969 C 6.417969 2.292969 6.417969 3.207031 6.417969 3.207031 L 7.792969 3.207031 L 7.792969 4.582031 C 7.792969 4.582031 8.707031 4.582031 8.707031 4.582031 L 8.707031 3.207031 L 10.082031 3.207031 L 10.082031 2.292969 L 8.707031 2.292969 Z M 8.707031 0.917969 "/>
<path style=" stroke:none;fill-rule:nonzero;fill:rgb(47.058824%,88.235294%,100%);fill-opacity:1;" d="M 3.207031 4.125 L 6.875 4.125 L 6.875 5.042969 L 3.207031 5.042969 Z M 3.207031 4.125 "/>
<path style=" stroke:none;fill-rule:nonzero;fill:rgb(47.058824%,88.235294%,100%);fill-opacity:1;" d="M 3.207031 5.5 L 3.207031 6.417969 L 6.875 6.417969 L 6.875 5.5 Z M 3.207031 5.5 "/>
<path style=" stroke:none;fill-rule:nonzero;fill:rgb(47.058824%,88.235294%,100%);fill-opacity:1;" d="M 3.207031 6.875 L 6.875 6.875 L 6.875 7.792969 L 3.207031 7.792969 Z M 3.207031 6.875 "/>
</g>
</svg>
